PathFileType	4	(X/Y/Z)	 s08c0203.trc
DataRate	CameraRate	NumFrames	NumMarkers	Units	OrigDataRate	OrigDataStartFrame	OrigNumFrames
200	200	4	50	mm	200	1001	2000
Frame#	Time	racr			lacr			c7			jug			rlel			rdr			llel			ldr			s2			lic			ric			lasi			rasi			rpsi			lpsi			rgt			lgt			rth1			rth2			rth3			rth4			rlfc			rmfc			rsh1			rsh2			rsh3			rsh4			rlmal			rmmal			rcal			rtoe			rmt5			lth1			lth2			lth4			lth3			llfc			lmfc			llmal			lmmal			lcal			lmt5			lsh1			lsh2			lsh3			lsh4			ltoe			SBIKE			LBIKE			RBIKE			
		X1	Y1	Z1	X2	Y2	Z2	X3	Y3	Z3	X4	Y4	Z4	X5	Y5	Z5	X6	Y6	Z6	X7	Y7	Z7	X8	Y8	Z8	X9	Y9	Z9	X10	Y10	Z10	X11	Y11	Z11	X12	Y12	Z12	X13	Y13	Z13	X14	Y14	Z14	X15	Y15	Z15	X16	Y16	Z16	X17	Y17	Z17	X18	Y18	Z18	X19	Y19	Z19	X20	Y20	Z20	X21	Y21	Z21	X22	Y22	Z22	X23	Y23	Z23	X24	Y24	Z24	X25	Y25	Z25	X26	Y26	Z26	X27	Y27	Z27	X28	Y28	Z28	X29	Y29	Z29	X30	Y30	Z30	X31	Y31	Z31	X32	Y32	Z32	X33	Y33	Z33	X34	Y34	Z34	X35	Y35	Z35	X36	Y36	Z36	X37	Y37	Z37	X38	Y38	Z38	X39	Y39	Z39	X40	Y40	Z40	X41	Y41	Z41	X42	Y42	Z42	X43	Y43	Z43	X44	Y44	Z44	X45	Y45	Z45	X46	Y46	Z46	X47	Y47	Z47	X48	Y48	Z48	X49	Y49	Z49	X50	Y50	Z50	
1001	5.0050	503.602982	1349.603397	-64.699608	528.892490	1360.654194	-377.709305	484.534713	1424.140349	-218.990297	463.740931	1263.324111	-222.452771	541.685574	1119.462725	67.204035	747.648972	936.501896	-60.160310	543.995848	1107.229559	-510.035803	730.768661	926.092761	-405.405138	-66.789135	1196.264458	-256.687641	96.399646	1207.460476	-406.390240	75.975029	1213.626749	-88.119685	121.216957	1153.119163	-372.586432	113.180472	1167.125761	-123.547110	-41.855544	1240.648989	-207.217277	-35.428816	1240.518219	-302.261070	34.847800	1112.983599	-53.845034	35.998324	1070.399897	-430.267535	186.317344	1030.658235	-55.558677	272.264402	1007.156326	-62.294029	332.493786	944.756346	-67.176578	289.213851	1037.210894	-76.920023	415.605026	868.185947	-87.399189	393.650503	852.803770	-198.294215	313.463323	792.017489	-53.617350	271.923372	712.416533	-66.707595	199.774807	666.083679	-65.735532	297.054671	693.710788	-92.811287	112.573165	583.039665	-66.363298	138.650917	588.089846	-153.056057	32.593925	601.289801	-110.104489	267.536303	414.991481	-105.504080	177.492859	446.092872	-38.595615	105.161104	949.365034	-443.059936	165.779874	886.299106	-439.840073	196.805292	903.528710	-430.269929	186.245256	799.845893	-437.178202	229.856153	680.968554	-414.851487	222.677229	655.257576	-318.470632	234.109725	260.185400	-410.709513	272.544120	296.140372	-341.005866	174.618825	237.639091	-370.286653	384.110421	180.497920	-419.140761	220.014480	549.925379	-439.940565	246.008801	469.452927	-424.568452	229.691302	382.474823	-422.794897	268.378868	474.285166	-391.558129	462.662807	215.292740	-348.776631	-199.443236	922.128458	-225.069099	-7.224448	82.942851	-427.382951	-10.347135	80.479053	-29.163289	
1002	5.0100	503.929992	1347.408487	-61.817931	529.347728	1360.945302	-373.675641	484.838901	1422.906722	-214.942731	464.437447	1262.074242	-219.767647	542.967885	1117.008042	68.692704	748.462035	935.784443	-60.971806	545.067223	1109.106080	-508.731024	731.149450	926.251614	-405.547113	-66.704745	1196.971193	-259.259122	98.269117	1206.913229	-407.049411	74.045798	1214.202784	-89.315100	121.760817	1151.961970	-373.534657	111.592006	1168.974800	-123.991345	-42.733904	1240.949653	-209.366527	-35.618297	1241.149122	-304.286187	33.243081	1115.197393	-54.522602	34.692721	1069.734837	-430.969691	185.649660	1034.898553	-56.841043	272.173407	1013.069431	-62.046653	333.728889	952.050795	-65.231931	288.790515	1043.527073	-76.985203	418.518478	876.226324	-86.036078	397.112366	860.269817	-197.142316	317.074718	799.244580	-53.186814	275.939089	719.333222	-66.187700	204.193638	672.773626	-65.144077	301.088616	700.646329	-91.925340	117.893013	588.499349	-66.178572	143.904560	594.302988	-152.812277	37.144351	605.307257	-109.816095	275.958869	424.463847	-105.755072	185.634540	453.443893	-38.621914	101.189917	947.693946	-444.798581	160.379859	883.158884	-442.293790	191.879093	899.613884	-432.803930	178.736346	796.203008	-439.824493	219.510106	676.278649	-416.616634	213.312784	651.041897	-320.136702	226.859720	255.992325	-411.167783	265.974977	292.012622	-341.938989	167.700381	234.894090	-370.370580	376.016424	173.652984	-419.171262	209.200428	545.271132	-441.619501	236.111030	465.094864	-426.287937	220.514326	378.041716	-424.022427	259.155153	470.235585	-393.859875	455.287205	206.991869	-348.881090	-199.528635	921.734617	-226.550548	-7.217994	82.944294	-427.385552	-10.328035	80.703130	-29.032198	
1003	5.0150	504.289518	1345.238399	-58.924720	529.717686	1361.100589	-369.722658	485.069518	1421.527645	-211.093064	465.248276	1260.660428	-217.076050	544.261004	1114.252066	70.018859	749.622237	934.670292	-60.990667	546.065243	1110.788673	-507.366325	731.478248	926.266133	-405.931470	-66.938285	1197.479538	-260.576461	100.077452	1206.363999	-407.356488	72.381490	1214.690224	-90.392448	122.290651	1150.806563	-374.263607	108.529491	1171.977829	-120.396527	-43.640134	1241.833675	-211.123957	-35.462491	1241.654477	-306.148851	31.775178	1117.555465	-54.949648	33.365157	1069.301407	-431.618549	185.364186	1040.122530	-56.784808	272.021674	1019.203105	-62.020396	334.187956	958.734918	-63.849240	288.368603	1050.145596	-75.741432	421.072990	884.054289	-84.652432	400.325493	867.832391	-195.997315	321.133817	806.373916	-52.260457	280.546870	725.887914	-65.044218	208.935246	678.757861	-64.435233	305.613374	707.411095	-91.103047	123.556638	593.196713	-65.847660	149.817713	599.808517	-152.828889	42.223752	608.519830	-109.356507	285.079771	433.594758	-105.885624	194.171140	460.265274	-38.654848	97.318503	946.362077	-447.013240	154.922279	880.218862	-444.801228	186.837034	895.933662	-435.394034	171.055816	792.853959	-442.432595	209.014158	671.637823	-417.320242	205.153624	647.415189	-320.503669	219.255096	252.348094	-411.673048	258.925155	288.553626	-342.862296	160.334322	232.440621	-370.480274	367.497182	167.314995	-419.210114	198.511413	541.153285	-443.101377	226.167883	461.188179	-427.704923	211.213212	374.089314	-425.038113	250.028118	466.604622	-396.004343	447.429844	199.335779	-349.057697	-199.504835	921.751531	-226.721167	-7.208397	82.944757	-427.403152	-10.330046	80.745320	-29.019912	
1004	5.0200	504.738393	1343.162217	-56.164957	530.078887	1361.035334	-365.883640	485.585758	1420.230614	-207.359991	465.737280	1259.409613	-214.426609	545.088277	1111.032102	69.563710	750.251021	933.647270	-61.296288	546.997573	1112.248456	-505.997404	732.048363	926.488880	-406.271329	-66.907231	1198.094426	-262.035787	101.868542	1205.812948	-407.797125	70.868995	1215.420114	-91.264640	122.747778	1149.798883	-374.856908	105.672138	1174.655773	-117.247744	-45.165464	1242.987815	-212.461558	-34.966754	1242.280812	-307.961693	30.518394	1119.975298	-55.180342	32.088833	1068.997801	-432.135893	184.772701	1044.867012	-57.071677	271.679715	1024.951693	-61.646748	334.710720	965.492135	-63.053891	287.731867	1055.873837	-76.103315	423.181379	891.527078	-83.131511	403.181985	875.246633	-194.650333	324.099847	812.407218	-51.861436	285.142540	731.998438	-64.007046	213.854580	684.199107	-63.630098	310.377406	713.782935	-89.997648	129.614375	597.255992	-65.427409	155.293386	604.703472	-151.968821	46.986444	610.994431	-108.985273	294.417156	441.912834	-105.965040	202.705459	466.099227	-38.771294	93.689060	945.610038	-449.642221	149.433687	877.474073	-447.249590	181.881581	892.380428	-438.085522	163.468093	789.725408	-444.607671	200.743530	669.373042	-421.318111	200.545421	644.300031	-317.862438	211.146329	249.238713	-412.113168	251.390598	285.370308	-343.699952	152.423034	230.230340	-370.567009	358.514093	161.722833	-419.252775	188.280169	537.532257	-444.186569	216.393326	457.826027	-428.827201	201.906123	370.703676	-425.702442	241.081761	463.448763	-397.808298	439.049413	192.470903	-349.279380	-199.741028	921.108754	-229.996723	-7.214707	82.962519	-427.417381	-10.325487	80.586457	-29.204200	
